# xmcd CD database file
#
# Track frame offsets:
#	150
#	8466
#	31845
#	53277
#	74928
#	95343
#	121574
#	138500
#	156766
#	178797
#	196207
#	216758
#	234800
#	256265
#	275425
#	293474
#
# Disc length: 4223 seconds
#
# Revision: 6
# Processed by: cddbd v1.5.2PL0 Copyright (c) Steve Scherf et al.
# Submitted via: CDex 1.79
#
DISCID=cd107d10
DTITLE=Tha Dogg Pound - 2002
DYEAR=2001
DGENRE=Rap
TTITLE0=Intro
TTITLE1=Roll Wit Us
TTITLE2=Just Doggin' Feat. Nate Dogg
TTITLE3=Smoke Feat. Snoop Dogg and The Relativez
TTITLE4=Gangsta Rap Feat. Crooked I
TTITLE5=10 Til Midnite Feat. SKG
TTITLE6=Living Tha Gangsta Life Feat. Xzibit
TTITLE7=Don't Stop Feat. 2Pac
TTITLE8=Change The Game (Remix) Feat. Jay-Z, Beanie Sigel and Memphis Bleek
TTITLE9=Crip Wit Us
TTITLE10=What Cha About
TTITLE11=Your Gyrlfriend 2 Feat. Mac Shawn and Soopafly
TTITLE12=Feels Good
TTITLE13=Way Too Often Feat. Soopafly
TTITLE14=It'z All About That Money
TTITLE15=Every Single Day Feat. Snoop Dogg
EXTD=RapMusicGuide.com YEAR: 2001
EXTT0=
EXTT1=
EXTT2=
EXTT3=
EXTT4=
EXTT5=
EXTT6=
EXTT7=
EXTT8=
EXTT9=
EXTT10=
EXTT11=
EXTT12=
EXTT13=
EXTT14=
EXTT15=
PLAYORDER=
